# xmcd
#
# Track frame offsets: 
#        150
#        18289
#        34193
#        54950
#        75125
#        92637
#        114335
#        128275
#        144580
#        161212
#        181304
#        199005
#        215945
#        233951
#        249920
#        267336
#        280070
#
# Disc length: 3881 seconds
#
# Revision: 2
# Processed by: cddbd v1.5.2PL0 Copyright (c) Steve Scherf et al.
# Submitted via: ExactAudioCopy v0.99pb5
#
DISCID=de0f2711
DTITLE=Various Artist - Pure... Divas - CD 1
DYEAR=2010
DGENRE=Pop
TTITLE0=Christina Aguilera - Beautiful
TTITLE1=Alicia Keys - Fallin'
TTITLE2=P!nk - I don't believe you
TTITLE3=Toni Braxton - Un-break my heart
TTITLE4=Delta Goodrem - Born to try
TTITLE5=Lisa Stansfield - All woman
TTITLE6=Alison Moyet - That ole devil called love
TTITLE7=Bette Midler - Fever
TTITLE8=Paloma Faith - New York
TTITLE9=Jennifer Rush - The power of love
TTITLE10=Labelle - Voulez vous coucher avec moi ce soir? (Lady Marmala
TTITLE10=de)
TTITLE11=Cheryl Lynn - Got to be real
TTITLE12=Amerie - 1 Thing
TTITLE13=TLC - Waterfalls
TTITLE14=Pointer Sisters - Slow hand
TTITLE15=Delaney and Bonnie and Friends feat. Eric Clapton - Groupie (Su
TTITLE15=perstar)
TTITLE16=Aretha Franklin - Respect
EXTD=
EXTT0=
EXTT1=
EXTT2=
EXTT3=
EXTT4=
EXTT5=
EXTT6=
EXTT7=
EXTT8=
EXTT9=
EXTT10=
EXTT11=
EXTT12=
EXTT13=
EXTT14=
EXTT15=
EXTT16=
PLAYORDER=
